<?xml version="1.0" encoding="UTF-8"?>
<svg width="466px" height="133px" viewBox="0 0 466 133" version="1.1" xmlns="http://www.w3.org/2000/svg" xmlns:xlink="http://www.w3.org/1999/xlink">
    <!-- Generator: Sketch 49.1 (51147) - http://www.bohemiancoding.com/sketch -->
    <title>Group</title>
    <desc>Created with Sketch.</desc>
    <defs>
        <linearGradient x1="67.6410303%" y1="41.9862804%" x2="67.6410303%" y2="41.088219%" id="linearGradient-1">
            <stop stop-color="#808184" offset="0%"></stop>
            <stop stop-color="#A4A5A7" offset="100%"></stop>
        </linearGradient>
        <linearGradient x1="394.301641%" y1="16.7150603%" x2="394.301641%" y2="7.82361746%" id="linearGradient-2">
            <stop stop-color="#808184" offset="0%"></stop>
            <stop stop-color="#A4A5A7" offset="100%"></stop>
        </linearGradient>
        <linearGradient x1="326.118163%" y1="16.7133971%" x2="326.118163%" y2="7.82195426%" id="linearGradient-3">
            <stop stop-color="#808184" offset="0%"></stop>
            <stop stop-color="#A4A5A7" offset="100%"></stop>
        </linearGradient>
        <linearGradient x1="179.945895%" y1="16.7150603%" x2="179.945895%" y2="7.82361746%" id="linearGradient-4">
            <stop stop-color="#808184" offset="0%"></stop>
            <stop stop-color="#A4A5A7" offset="100%"></stop>
        </linearGradient>
        <linearGradient x1="82.1015575%" y1="16.7133971%" x2="82.1015575%" y2="7.82195426%" id="linearGradient-5">
            <stop stop-color="#808184" offset="0%"></stop>
            <stop stop-color="#A4A5A7" offset="100%"></stop>
        </linearGradient>
        <linearGradient x1="-44.3286912%" y1="16.7150603%" x2="-44.3286912%" y2="7.82361746%" id="linearGradient-6">
            <stop stop-color="#808184" offset="0%"></stop>
            <stop stop-color="#A4A5A7" offset="100%"></stop>
        </linearGradient>
        <linearGradient x1="-103.492879%" y1="17.6114357%" x2="-103.492879%" y2="8.95944262%" id="linearGradient-7">
            <stop stop-color="#808184" offset="0%"></stop>
            <stop stop-color="#A4A5A7" offset="100%"></stop>
        </linearGradient>
        <linearGradient x1="-276.727384%" y1="16.7133971%" x2="-276.727384%" y2="7.82195426%" id="linearGradient-8">
            <stop stop-color="#808184" offset="0%"></stop>
            <stop stop-color="#A4A5A7" offset="100%"></stop>
        </linearGradient>
        <linearGradient x1="20.0525164%" y1="37.6279616%" x2="20.0525164%" y2="45.0622783%" id="linearGradient-9">
            <stop stop-color="#67ACE3" offset="0%"></stop>
            <stop stop-color="#4C90D4" offset="100%"></stop>
        </linearGradient>
        <linearGradient x1="36.5442387%" y1="16.8331833%" x2="36.5442387%" y2="63.1618546%" id="linearGradient-10">
            <stop stop-color="#67ACE3" offset="0%"></stop>
            <stop stop-color="#4C90D4" offset="100%"></stop>
        </linearGradient>
        <linearGradient x1="53.0003729%" y1="-23.6134267%" x2="53.0003729%" y2="23.854181%" id="linearGradient-11">
            <stop stop-color="#67ACE3" offset="0%"></stop>
            <stop stop-color="#4C90D4" offset="100%"></stop>
        </linearGradient>
    </defs>
    <g id="Page-1" stroke="none" stroke-width="1" fill="none" fill-rule="evenodd">
        <g id="Group" fill-rule="nonzero">
            <g id="g3" transform="translate(150.000000, 32.000000)">
                <path d="M0.385,0.886 L17.37,0.886 C36.025,0.886 43.519,14.878 43.519,30.947 C43.519,47.02 36.025,61.011 17.37,61.011 L0.385,61.011 L0.385,0.886 Z M5.879,56.515 L17.535,56.515 C30.859,56.515 38.021,47.188 38.021,30.948 C38.021,14.715 30.859,5.385 17.535,5.385 L5.879,5.385 L5.879,56.515 Z" id="path5" fill="url(#linearGradient-2)"></path>
                <polygon id="path7" fill="url(#linearGradient-3)" points="53.416 61.012 53.416 0.887 87.723 0.887 87.723 5.385 58.912 5.385 58.912 27.535 79.644 27.535 79.644 32.032 58.912 32.032 58.912 56.515 89.307 56.515 89.307 61.012"></polygon>
                <polygon id="path9" fill="url(#linearGradient-4)" points="89.545 0.886 95.373 0.886 111.695 53.182 111.863 53.182 128.683 0.886 134.513 0.886 114.527 61.011 109.029 61.011 89.545 0.886"></polygon>
                <polygon id="path11" fill="url(#linearGradient-5)" points="140.996 61.012 140.996 0.887 175.303 0.887 175.303 5.385 146.494 5.385 146.494 27.535 167.224 27.535 167.224 32.032 146.494 32.032 146.494 56.515 176.887 56.515 176.887 61.012 140.996 61.012"></polygon>
                <polygon id="path13" fill="url(#linearGradient-6)" points="184.787 0.886 190.285 0.886 190.285 56.514 217.1 56.514 217.1 61.011 184.787 61.011 184.787 0.886"></polygon>
                <path d="M267.053,30.947 C267.053,48.684 258.395,61.843 243.323,61.843 C228.251,61.843 219.587,48.684 219.587,30.947 C219.587,13.21 228.251,0.054 243.323,0.054 C258.395,0.054 267.053,13.21 267.053,30.947 Z M261.555,30.947 C261.555,14.042 254.397,4.551 243.323,4.551 C232.243,4.551 225.081,14.042 225.081,30.947 C225.081,47.852 232.243,57.35 243.323,57.35 C254.396,57.351 261.555,47.853 261.555,30.947 Z" id="path15" fill="url(#linearGradient-7)"></path>
                <path d="M276.945,61.012 L276.945,0.887 L295.1,0.887 C309.424,0.887 315.424,7.553 315.424,17.624 C315.424,27.703 309.424,34.364 295.1,34.364 L282.444,34.364 L282.444,61.012 L276.945,61.012 Z M282.443,29.867 L295.1,29.867 C305.514,29.867 309.928,25.538 309.928,17.624 C309.928,9.713 305.514,5.384 295.1,5.384 L282.444,5.384 L282.444,29.867 L282.443,29.867 Z" id="path17" fill="url(#linearGradient-8)"></path>
            </g>
            <g id="g3851">
                <g id="g21" transform="translate(37.000000, 0.000000)" fill="url(#linearGradient-10)">
                    <path d="M50.503,96.436 C38.165,96.436 26.287,93.1 15.794,85.836 C8.48,80.775 0.015,69.347 0.015,49.973 C0.015,14.03 18.375,0.912 55.271,0.912 L121.697,0.912 L128.093,21.384 L60.333,21.384 C35.981,21.384 21.501,23.283 21.501,49.973 C21.501,58.789 23.987,65.063 29.104,69.151 C37.752,76.061 54.561,76.355 64.832,75.365 C64.832,75.365 69.046,61.814 69.74,59.614 C70.553,57.036 70.197,56.421 67.661,56.421 C63.998,56.421 57.413,56.421 50.424,56.421 C45.526,56.421 40.714,53.956 40.714,48.035 C40.714,42.317 45.191,38.998 51.328,38.998 C61.954,38.998 83.839,38.998 87.935,38.998 C93.305,38.998 98.785,39.768 95.989,48.269 L81.182,93.175 C81.183,93.176 69.086,96.436 50.503,96.436 Z" id="path23"></path>
                </g>
                <path d="M128.973,104.059 C121.51,109.284 110.456,112.172 91.699,112.172 C59.37,112.172 35.709,100.555 26.062,78.034 C21.501,67.389 21.94,55.324 21.94,39.007 L0.455,39.007 C0.455,56.213 0.159,69.704 4.762,82.13 C16.832,114.726 47.914,132.239 89.668,132.239 C130.084,132.239 146.832,120.714 157.75,104.059 L128.973,104.059 Z" id="path25" fill="url(#linearGradient-11)"></path>
            </g>
            <g id="g3847" transform="translate(0.000000, 59.000000)" fill="#377FC9">
                <path d="M106.619,1 C105.661,4.051 101.832,16.365 101.832,16.365 C91.561,17.355 74.752,17.061 66.104,10.151 C63.198,7.828 61.142,4.798 59.907,1 L37.838,1 C40.135,14.391 46.845,22.72 52.794,26.836 C63.287,34.1 75.165,37.436 87.503,37.436 C106.086,37.436 118.183,34.176 118.183,34.176 L129.122,1 L106.619,1 Z" id="path45"></path>
                <path d="M4.762,23.129 C16.832,55.725 47.914,73.238 89.668,73.238 C130.084,73.238 146.832,61.713 157.75,45.058 L128.974,45.058 C121.511,50.283 110.457,53.171 91.7,53.171 C59.371,53.171 35.71,41.554 26.063,19.032 C23.707,13.532 22.69,7.647 22.253,0.999 L0.74,0.999 C1.165,9.006 2.208,16.232 4.762,23.129 Z" id="path47"></path>
            </g>
        </g>
    </g>
</svg>